<svg version="1.1" xmlns="http://www.w3.org/2000/svg" xmlns:xlink="http://www.w3.org/1999/xlink" width="238.88744" height="299.526" viewBox="0,0,238.88744,299.526"><g transform="translate(-230.87256,-49.75)"><g data-paper-data="{&quot;isPaintingLayer&quot;:true}" fill-rule="nonzero" stroke="none" stroke-width="1" stroke-linecap="butt" stroke-linejoin="miter" stroke-miterlimit="10" stroke-dasharray="" stroke-dashoffset="0" style="mix-blend-mode: normal"><path d="M384.25,62.48h-2.58l-1.85,-9.73v0l-1.84,9.78h-2.56l-2.59,-12h2.09l1.77,9.77v0l1.79,-9.77h2.77l1.68,9.77v0l1.84,-9.77h2z" fill="#00cccc"/><path d="M391.39,62.75c-2.68,0 -3.61,-1.79 -3.61,-4.73c0,-2.94 1,-4.81 3.67,-4.81c2.67,0 3.59,1.77 3.59,4.74c0,2.97 -0.99,4.8 -3.65,4.8zM392.93,57.26c0,-1.36 -0.48,-2.24 -1.5,-2.24c-1.02,0 -1.54,0.92 -1.54,2.28v1.4c0,1.36 0.48,2.24 1.5,2.24c1.02,0 1.54,-0.92 1.54,-2.27z" fill="#00cccc"/><path d="M401.74,55.43c-0.19606,-0.02196 -0.39395,-0.02196 -0.59,0c-1.06921,0.05351 -1.90669,0.93947 -1.9,2.01v5h-2.06v-9h2v1.31v0c0.38812,-0.93551 1.2877,-1.5574 2.3,-1.59c0.13272,-0.01798 0.26727,-0.01798 0.4,0z" fill="#00cccc"/><path d="M403.65,62.48v-12.73h2.07v12.73z" fill="#00cccc"/><path d="M413.25,62.48l-0.09,-1.1v0c-0.45963,0.85138 -1.35252,1.37865 -2.32,1.37c-2.22,0 -3,-1.93 -3,-4.75c0,-2.82 0.82,-4.79 3.09,-4.79c0.88002,-0.04708 1.71015,0.41066 2.14,1.18v0v-4.64h2.06v12.73zM413.06,57.28c0,-1.31 -0.72,-2.19 -1.53,-2.19c-1.13,0 -1.59,1 -1.59,2.33v1.14c0,1.44 0.6,2.27 1.53,2.27c0.93,0 1.59,-1 1.59,-2.11z" fill="#00cccc"/><path d="M427.57,62.48l-1.24,-3.58c-0.26,-0.7 -0.61,-1.06 -1.09,-1.06h-1.07v4.64h-2.1v-12h3.65c2.27,0 3.78,0.94 3.78,3.49c0.07572,1.39078 -0.78838,2.66031 -2.11,3.1v0c0.18,0 0.63,0.33 0.95,1.16l1.65,4.28zM425.57,52.34h-1.41v3.6h1.28c0.5112,0.07326 1.02769,-0.09267 1.40058,-0.44994c0.37289,-0.35728 0.56075,-0.8662 0.50942,-1.38006c0.07611,-0.48884 -0.08571,-0.98464 -0.43554,-1.33446c-0.34983,-0.34983 -0.84563,-0.51164 -1.33447,-0.43553z" fill="#00cccc"/><path d="M438.11,58.58h-4.86v0.17c-0.07162,0.5458 0.10222,1.09529 0.47471,1.5006c0.3725,0.40531 0.90539,0.6248 1.45529,0.5994c0.85801,-0.00959 1.70008,-0.23299 2.45,-0.65l0.1,1.82c-0.8444,0.48422 -1.80718,0.72319 -2.78,0.69c-3,0 -3.74,-1.84 -3.74,-4.73c0,-2.89 1,-4.81 3.71,-4.81c2.2,0 3.22,1.39 3.22,4.34c0,0.24 -0.01,0.8 -0.03,1.07zM434.84,54.8c-1.15,0 -1.62,1.12 -1.62,2.22h3c0.03,-1.06 -0.18,-2.22 -1.38,-2.22z" fill="#00cccc"/><path d="M443.19,62.75c-2.61,0 -3.34,-1.9 -3.34,-4.79c0,-2.89 0.89,-4.75 3.57,-4.75c0.69829,0.0043 1.38492,0.17939 2,0.51l-0.1,1.88c-0.51259,-0.30418 -1.0942,-0.47281 -1.69,-0.49c-1,0 -1.67,0.81 -1.67,2.38v1c0,1.66 0.76,2.38 1.67,2.38c0.63076,-0.00281 1.2491,-0.17553 1.79,-0.5l0.11,1.84c-0.71774,0.38585 -1.52576,0.57231 -2.34,0.54z" fill="#00cccc"/><path d="M450.64,62.75c-2.68,0 -3.6,-1.79 -3.6,-4.73c0,-2.94 1,-4.81 3.67,-4.81c2.67,0 3.59,1.77 3.59,4.74c0,2.97 -0.99,4.8 -3.66,4.8zM452.19,57.26c0,-1.36 -0.48,-2.24 -1.5,-2.24c-1.02,0 -1.54,0.92 -1.54,2.28v1.4c0,1.36 0.47,2.24 1.49,2.24c1.02,0 1.55,-0.92 1.55,-2.27z" fill="#00cccc"/><path d="M461,55.43c-0.19606,-0.02196 -0.39394,-0.02196 -0.59,0c-1.10084,0.03803 -1.9637,0.95902 -1.93,2.06v5h-2.06v-9h2v1.26v0c0.38812,-0.93551 1.2877,-1.5574 2.3,-1.59c0.13272,-0.01798 0.26727,-0.01798 0.4,0z" fill="#00cccc"/><path d="M467.92,62.48l-0.09,-1.1v0c-0.46628,0.86429 -1.37824,1.39369 -2.36,1.37c-2.22,0 -3,-1.93 -3,-4.75c0,-2.82 0.83,-4.79 3.09,-4.79c0.88113,-0.05196 1.71369,0.40711 2.14,1.18v0v-4.64h2.06v12.73zM467.73,57.28c0,-1.31 -0.71,-2.19 -1.53,-2.19c-1.13,0 -1.59,1 -1.59,2.33v1.14c0,1.44 0.6,2.27 1.53,2.27c0.93,0 1.59,-1 1.59,-2.11z" fill="#00cccc"/><text transform="translate(231.02553,345.45184) scale(0.30593,0.30593)" font-size="40" xml:space="preserve" fill="#000000" fill-rule="nonzero" stroke="none" stroke-width="1" stroke-linecap="butt" stroke-linejoin="miter" stroke-miterlimit="10" stroke-dasharray="" stroke-dashoffset="0" font-family="Sans Serif" font-weight="normal" text-anchor="start" style="mix-blend-mode: normal"><tspan x="0" dy="0">(Press P to pause)</tspan></text></g></g></svg>