<svg version="1.1" xmlns="http://www.w3.org/2000/svg" xmlns:xlink="http://www.w3.org/1999/xlink" width="209.38891" height="63.59292" viewBox="0,0,209.38891,63.59292"><g transform="translate(-230.12469,-112.32344)"><g data-paper-data="{&quot;isPaintingLayer&quot;:true}" fill="#000000" fill-rule="nonzero" stroke-width="1" stroke-linecap="butt" stroke-linejoin="miter" stroke-miterlimit="10" stroke-dasharray="" stroke-dashoffset="0" style="mix-blend-mode: normal"><g stroke="#000000"><path d="M239.42,137.73c-6.64,0 -7.9,-4.93 -7.9,-11.8c0,-6.87 1.8,-11.9 8.89,-11.9c1.93366,-0.042 3.8454,0.41613 5.55,1.33l-0.18,3.77c-1.57205,-0.87231 -3.33261,-1.34934 -5.13,-1.39c-3.45,0 -5.08,2.38 -5.08,6.66v3.06c0,4.86 1.72,6.56 4.12,6.56c1.04989,0.03018 2.08782,-0.22931 3,-0.75v-5.06h-2.94v-3.54h6.69v11.09c-2.09691,1.32924 -4.53767,2.01418 -7.02,1.97z"/><path d="M263.28,129.87h-9.16v0.38c0,2 0.9,3.94 3.63,3.94c1.61996,-0.0213 3.20989,-0.44025 4.63,-1.22l0.18,3.43c-1.59,0.90661 -3.40078,1.35325 -5.23,1.29c-5.62,0 -7.06,-3.46 -7.06,-8.9c0,-5.44 1.9,-9 7,-9c4.14,0 6.07,2.62 6.07,8.16c0,0.29 -0.03,1.41 -0.06,1.92zM257.12,122.77c-2.16,0 -3.06,2.11 -3.06,4.18h5.64c0,-2.01 -0.33,-4.18 -2.58,-4.18z"/><path d="M273.31,137.69c-2.86,0 -4.12,-1.59 -4.12,-4.76c0,0 0,-0.06 0,-9.18h-3.19v-3.53h3.21v-4.25l3.88,-0.51v4.76h3.72v3.53h-3.71v8.33c0,1.5 0.51,2.11 1.65,2.11c0.66008,-0.03842 1.30906,-0.18714 1.92,-0.44l0.18,3.2c-1.11974,0.47744 -2.32278,0.72892 -3.54,0.74z"/><path d="M286.92,137.69c-2.86,0 -4.12,-1.59 -4.12,-4.76c0,0 0,-0.06 0,-9.18h-3.21v-3.53h3.21v-4.25l3.88,-0.51v4.76h3.72v3.53h-3.72v8.33c0,1.5 0.51,2.11 1.65,2.11c0.66008,-0.03842 1.30906,-0.18714 1.92,-0.44l0.18,3.2c-1.11043,0.47359 -2.30289,0.72499 -3.51,0.74z"/><path d="M296.28,118.32c-1.13729,0.14958 -2.24855,-0.41988 -2.79135,-1.43042c-0.54279,-1.01054 -0.40396,-2.25147 0.34874,-3.11707c0.75269,-0.8656 1.96232,-1.1754 3.03844,-0.77819c1.07612,0.39721 1.79437,1.41863 1.80417,2.56568c0.08619,1.42044 -0.98136,2.64811 -2.4,2.76zM294.28,137.22v-17h3.91v17z"/><path d="M312.56,137.22v-10.41c0,-1.66 -0.43,-3.19 -2.53,-3.19c-1.69311,0.06779 -3.044,1.43615 -3.09,3.13v10.47h-3.94v-17h3.72v2.07h0.06c1.09497,-1.55911 2.86532,-2.50552 4.77,-2.55c3,0 4.87,1.7 4.87,5.72v11.76z"/><path d="M326.81,144.7c-1.81182,0.02065 -3.59869,-0.42348 -5.19,-1.29l0.17,-3.74c1.3674,0.88228 2.94435,1.38608 4.57,1.46c2.61,0 4.05,-1.29 4.05,-4.49v-1.64v0c-0.91501,1.45833 -2.53966,2.31643 -4.26,2.25c-4.17,0 -5.59,-3.57 -5.59,-8.71c0,-5 1.57,-8.77 5.83,-8.77c1.78232,-0.09568 3.44866,0.88522 4.23,2.49v0l0.18,-2h3.49v16.42c0,5.23 -3,8.02 -7.48,8.02zM330.41,127.22c0,-2.31 -1.35,-3.91 -2.91,-3.91c-2.13,0 -3,1.84 -3,4.22v2c0,2.62 1.14,4.08 2.88,4.08c1.74,0 3,-1.73 3,-3.8z"/><path d="M354.83,137.73c-6.85,0 -8.08,-4.73 -8.08,-11.87c0,-7.14 1.5,-11.86 8.35,-11.86c6.85,0 8.08,4.73 8.08,11.83c0,7.1 -1.47,11.9 -8.35,11.9zM359.12,124.4c0,-4.42 -1.32,-6.66 -4.11,-6.66c-2.79,0 -4.21,2.24 -4.21,6.66v3c0,4.42 1.33,6.66 4.12,6.66c2.79,0 4.2,-2.24 4.2,-6.66z"/><path d="M375.72,137.22h-4.72l-4.95,-17h4l3.4,13.5v0l3.39,-13.5h3.78z"/><path d="M396,129.87h-9.2v0.38c0,2 0.91,3.94 3.64,3.94c1.61696,-0.02007 3.20394,-0.43914 4.62,-1.22l0.18,3.43c-1.58589,0.90778 -3.39381,1.35456 -5.22,1.29c-5.62,0 -7.06,-3.46 -7.06,-8.9c0,-5.44 1.89,-9 7,-9c4.14,0 6.06,2.62 6.06,8.16c-0.02,0.29 -0.02,1.41 -0.02,1.92zM389.85,122.77c-2.16,0 -3.07,2.11 -3.07,4.18h5.65c-0.04,-2.01 -0.37,-4.18 -2.62,-4.18z"/><path d="M408.71,124c-0.36554,-0.07167 -0.73754,-0.10518 -1.11,-0.1c-0.99745,0.02332 -1.94372,0.44633 -2.62629,1.17402c-0.68257,0.7277 -1.04421,1.69908 -1.00371,2.69598v9.49h-3.87v-17h3.69v2.52v0c0.72155,-1.76509 2.41405,-2.94044 4.32,-3c0.25188,-0.00618 0.50361,0.01731 0.75,0.07z"/><path d="M420.91,137.22v-22.68h4v22.68z"/><path d="M435.52,137.69c-2.86,0 -4.12,-1.59 -4.12,-4.76c0,0 0,-0.06 0,-9.18h-3.21v-3.53h3.21v-4.25l3.87,-0.51v4.76h3.73v3.53h-3.7v8.33c0,1.5 0.51,2.11 1.65,2.11c0.66008,-0.03842 1.30906,-0.18714 1.92,-0.44l0.13,3.25c-1.10454,0.45263 -2.28632,0.68694 -3.48,0.69z"/></g><text transform="translate(230.26451,159.2053) scale(0.27964,0.30792)" font-size="40" xml:space="preserve" fill="#000000" fill-rule="nonzero" stroke="none" stroke-width="1" stroke-linecap="butt" stroke-linejoin="miter" stroke-miterlimit="10" stroke-dasharray="" stroke-dashoffset="0" font-family="Sans Serif" font-weight="normal" text-anchor="start" style="mix-blend-mode: normal"><tspan x="0" dy="0">Scratch Edition with GmingRealm</tspan></text><text transform="translate(230.30408,172.60636) scale(0.2648,0.2648)" font-size="40" xml:space="preserve" fill="#000000" fill-rule="nonzero" stroke="none" stroke-width="1" stroke-linecap="butt" stroke-linejoin="miter" stroke-miterlimit="10" stroke-dasharray="" stroke-dashoffset="0" font-family="Sans Serif" font-weight="normal" text-anchor="start" style="mix-blend-mode: normal"><tspan x="0" dy="0">(Click anywhere to enable sound)</tspan></text></g></g></svg>